<?xml version="1.0" encoding="UTF-8"?>
<svg width="35px" height="39px" viewBox="0 0 35 39" version="1.1" xmlns="http://www.w3.org/2000/svg" xmlns:xlink="http://www.w3.org/1999/xlink">
    <title>cat</title>
    <g id="页面-1" stroke="none" stroke-width="1" fill="none" fill-rule="evenodd">
        <g id="25-宠物新增页" transform="translate(-158.000000, -608.000000)" fill="#361D1E">
            <g id="Select" transform="translate(15.000000, 593.000000)">
                <g id="cat" transform="translate(124.169811, 0.000000)">
                    <g transform="translate(19.811321, 15.178348)">
                        <path d="M19.2216481,14.6574342 C19.5753798,14.6574342 19.8623697,14.3557838 19.8623697,13.9831982 L19.8623697,12.6666822 C19.8623697,12.2940966 19.5753798,11.9924462 19.2216481,11.9924462 C18.8679164,11.9924462 18.5809265,12.2940966 18.5809265,12.6666822 L18.5809265,13.9831982 C18.5809265,14.3557838 18.8679164,14.6574342 19.2216481,14.6574342 Z" id="Path"></path>
                        <path d="M18.4901313,15.9899282 L19.9531648,15.9899282 C20.2567701,15.9899282 20.5030913,15.6918521 20.5030913,15.3236812 C20.5030913,14.9558573 20.2567701,14.6574342 19.9531648,14.6574342 L18.4901313,14.6574342 C18.1865261,14.6574342 17.9402049,14.9558573 17.9402049,15.3236812 C17.9402049,15.6918521 18.1865261,15.9899282 18.4901313,15.9899282 Z" id="Path"></path>
                        <path d="M8.32938084,14.6574342 C8.68311255,14.6574342 8.97010244,14.3557838 8.97010244,13.9831982 L8.97010244,12.6666822 C8.97010244,12.2940966 8.68311255,11.9924462 8.32938084,11.9924462 C7.97531543,11.9924462 7.68865923,12.2940966 7.68865923,12.6666822 L7.68865923,13.9831982 C7.68865923,14.3557838 7.97531543,14.6574342 8.32938084,14.6574342 Z" id="Path"></path>
                        <path d="M7.59792555,15.9899282 L9.06083613,15.9899282 C9.36476172,15.9899282 9.61082404,15.6918521 9.61082404,15.3236812 C9.61082404,14.9558573 9.36476172,14.6574342 9.06083613,14.6574342 L7.59792555,14.6574342 C7.29399995,14.6574342 7.04793763,14.9558573 7.04793763,15.3236812 C7.04793763,15.6918521 7.29399995,15.9899282 7.59792555,15.9899282 Z" id="Path"></path>
                        <path d="M13.7755145,15.9899282 C14.3416956,15.9899282 14.8741685,15.7922775 15.235713,15.4478786 C15.4439293,15.2497314 15.4197667,14.9485375 15.1814217,14.7752207 C14.9433751,14.6019038 14.5815321,14.6222649 14.3733159,14.8204121 C14.229235,14.9577248 14.0111747,15.0364374 13.7755145,15.0364374 C13.5398542,15.0364374 13.3217939,14.9577248 13.1777131,14.8204121 C12.9694968,14.6222649 12.6076539,14.6019038 12.3696072,14.7752207 C12.1312623,14.9485375 12.1070996,15.2497314 12.3153159,15.4478786 C12.6768605,15.7922775 13.209035,15.9899282 13.7755145,15.9899282 Z" id="Path"></path>
                        <path d="M1.28924714,14.932804 C1.28924714,18.4284557 2.62285399,20.9411858 5.25312558,22.4017119 C5.94962463,22.7882177 6.7316587,23.1033777 7.6157096,23.3504348 C7.45970064,24.3274602 6.99138954,25.3003581 6.49892405,26.3221958 C5.78196474,27.8101399 4.96924037,29.4964963 5.02493757,31.5033195 C5.03374676,31.8158261 5.2852367,32.0619987 5.586172,32.0525646 C5.88739159,32.04372 6.1243888,31.7831014 6.11586368,31.4705947 C6.06783908,29.7482706 6.78309341,28.264159 7.47504575,26.8286923 C7.99621239,25.7473015 8.49294043,24.7160297 8.68219719,23.6051572 C9.58926578,23.7885337 10.5920994,23.9129467 11.7046225,23.9804599 C13.1362678,24.0671363 14.5784273,24.0650726 16.0097883,23.9804599 C17.1223114,23.9129467 18.1248609,23.7885337 19.0316452,23.6051572 C19.2209021,24.7160297 19.7181984,25.7473015 20.2393651,26.8286923 C20.8858503,28.1695225 21.5542166,29.5557547 21.5991154,31.1342079 C21.6070722,31.4190017 21.593432,31.7105762 21.5599001,31.99537 C21.3800208,33.517513 20.6124794,35.0974403 19.2305638,36.7976532 C18.8622803,37.2504929 18.3183802,37.5102272 17.737538,37.5102272 L17.3530568,37.5102272 C18.7889647,34.3058552 18.3732249,30.3709253 18.3527647,30.1902021 C18.318096,29.8797592 18.0472826,29.657172 17.7483364,29.6931397 C17.448822,29.7291075 17.2342741,30.0097738 17.2689427,30.3205114 C17.2737736,30.3635548 17.7165095,34.5393507 16.1302761,37.5102272 L14.4025264,37.5102272 L14.4025264,30.2553568 C14.4025264,29.9428502 14.1581408,29.6893071 13.8569213,29.6893071 C13.5557017,29.6893071 13.3113161,29.9428502 13.3113161,30.2553568 L13.3113161,37.5102272 L11.5835664,37.5102272 C10.004153,34.5505537 10.4389322,30.3765268 10.4448997,30.3202166 C10.4795684,30.0097738 10.2650206,29.7291075 9.96550601,29.6931397 C9.6662757,29.657172 9.39546231,29.8797592 9.36107784,30.1902021 C9.3409018,30.3709253 8.92487786,34.3058552 10.3607856,37.5102272 L9.97630448,37.5102272 C9.39574647,37.5102272 8.85156212,37.2504929 8.48356286,36.7976532 C7.56882167,35.6726294 6.91267464,34.5797407 6.53274015,33.5490585 C6.42532417,33.2568943 6.10989615,33.1106648 5.82828437,33.2224006 C5.54695666,33.3338416 5.40600866,33.6610892 5.51342464,33.9532534 C5.94308871,35.118962 6.64186119,36.2882084 7.64924162,37.5276214 C8.22525286,38.236068 9.07349838,38.6423266 9.97630448,38.6423266 L17.737538,38.6423266 C18.6406282,38.6423266 19.4888738,38.236068 20.0646009,37.5276214 C20.6997194,36.7463549 21.217476,35.9824826 21.6207123,35.2309926 C23.4689498,34.8713152 24.8767249,34.0697063 25.9150797,32.7840069 C27.1654248,31.23592 27.608729,29.3154784 28.0375406,27.4581278 C28.288178,26.3717251 28.5251752,25.3454652 28.9082355,24.3881926 C29.0236083,24.0992714 28.8917537,23.7681913 28.6132677,23.6482005 C28.3347818,23.5285046 28.0156596,23.6653 27.9002868,23.9542212 C27.4842629,24.9946323 27.2259529,26.1128753 26.976168,27.1942661 C26.5769101,28.9242555 26.1637279,30.7132084 25.0787692,32.0566921 C24.3601049,32.9467462 23.4163785,33.5629149 22.2120687,33.9249509 C22.4064406,33.3933948 22.5394318,32.8671455 22.6153051,32.341191 C22.6485529,32.1112333 22.6721389,31.8795067 22.6835057,31.6468956 C24.246153,30.7126188 24.6542202,28.9457772 25.1625992,26.7434901 C25.5038866,25.26498 25.8909253,23.5889422 26.7155847,22.0446879 C27.6524912,20.2908182 29.0162199,18.9723941 30.8854859,18.0142371 C31.3415777,17.7807416 31.9099165,17.9815123 32.1344102,18.4532204 C32.3597566,18.9266974 32.1665214,19.5157429 31.7112821,19.7492384 C30.6112625,20.3129295 29.7428409,21.0154798 29.0560036,21.897279 C28.8664627,22.1402087 28.9028363,22.4966432 29.137276,22.6932865 C29.3717157,22.889635 29.7152765,22.8518983 29.9045333,22.6089687 C30.4902063,21.8571839 31.2392768,21.2539872 32.1946542,20.7640004 C33.1764593,20.2607469 33.5978825,18.9924417 33.1204779,17.9682455 C33.1179204,17.9629388 33.1153629,17.9573373 33.1128053,17.9517358 C32.6280124,16.9337308 31.4043791,16.4965163 30.4180273,16.9912201 C30.4126281,16.9938735 30.407513,16.9965269 30.4021138,16.9991802 C28.3271092,18.062882 26.8090765,19.5337267 25.7610599,21.4957376 C24.8642213,23.1750184 24.4589959,24.9306569 24.1012266,26.4799231 C23.682361,28.2942304 23.3950658,29.5357071 22.6195676,30.2948624 C22.4109873,28.8066233 21.7818363,27.4973385 21.2152026,26.3221958 C20.722453,25.3003581 20.2541419,24.3274602 20.0981329,23.3504348 C20.9821837,23.1033777 21.7642178,22.7882177 22.4604328,22.4017119 C25.0907044,20.9411858 26.4245953,18.4281609 26.4245953,14.9325091 C26.4245953,13.4460391 26.2683022,12.0406437 25.9628201,10.7304745 C28.1463775,7.17526962 27.8232769,3.50685484 27.427429,1.6150106 C27.2509598,0.771242724 26.5709425,0.143576168 25.736053,0.0527723612 C25.4129524,0.0176890533 25.0881469,0 24.7710138,0 C21.9364245,0 20.1143305,1.38063063 19.428914,2.01242459 C17.7159412,1.13268901 15.7983663,0.654789771 13.8569213,0.654789771 C11.915192,0.654789771 9.9976172,1.13268901 8.28492846,2.01242459 C7.59922781,1.38063063 5.77684966,0 2.9425445,0 C2.6254115,0 2.30089006,0.0176890533 1.97778951,0.0527723612 C1.14261575,0.143576168 0.46288264,0.771242724 0.286413486,1.6150106 C-0.109718564,3.50685484 -0.432534957,7.17526962 1.75102233,10.7304745 C1.44554032,12.0406437 1.28924714,13.4460391 1.28924714,14.932804 Z M3.35231668,3.45054466 C4.2357992,3.52306982 4.92576248,3.81022208 5.39492604,4.07968536 C5.31251696,4.15928607 5.23181286,4.24065571 5.15167707,4.32290983 C4.54156551,4.94969191 3.99624449,5.64369248 3.52708086,6.38987565 C3.27985355,5.29285955 3.27559099,4.26718925 3.35231668,3.45054466 Z M24.1867616,6.38987565 C23.8861104,5.91138682 23.5556214,5.45677811 23.1967156,5.02663928 C22.9304489,4.70764672 22.6485529,4.40251053 22.3527326,4.11299973 C22.3413658,4.10209142 22.3302832,4.0905936 22.3189164,4.07968536 C22.78808,3.81051688 23.4780432,3.52306982 24.3612416,3.45083946 C24.4379674,4.26689446 24.4337048,5.29315435 24.1867616,6.38987565 Z M24.771298,1.13209941 C25.0506364,1.13209941 25.336795,1.14772472 25.6223853,1.17868062 C25.987827,1.21848094 26.284784,1.49030276 26.3609414,1.85528686 C26.6880203,3.41664063 26.9628121,6.30673714 25.5342927,9.23073769 C25.511275,9.16351921 25.3694745,8.79647137 25.3311116,8.67677548 C25.2077821,8.35955179 25.0745067,8.04969852 24.930717,7.74721575 C25.6147127,5.82736383 25.5570263,3.99920012 25.3808413,2.78337252 C25.3410576,2.50830776 25.1145746,2.30429401 24.8466029,2.30164067 L24.786359,2.30134587 C23.2379201,2.30134587 22.1111886,2.84911685 21.4399806,3.3066737 C21.1248368,3.05519434 20.7971895,2.8193403 20.4570388,2.60029084 C21.1819548,2.02480697 22.6488371,1.13209941 24.771298,1.13209941 Z M21.1316569,4.5021589 C24.0617271,7.04171728 25.333385,11.0665665 25.333385,14.9325091 C25.333385,18.0213127 24.2254086,20.1378079 21.945802,21.4034597 C19.8682398,22.556786 17.4005131,22.8129824 15.0819753,22.8908142 C15.0632202,22.8912565 12.6506223,22.8912565 12.6318671,22.8908142 C10.3124768,22.8123927 7.8481601,22.55826 5.76804039,21.4034597 C3.48843383,20.1378079 2.38045748,18.0213127 2.38045748,14.9325091 C2.38045748,11.3495914 3.416539,7.72893702 5.90302085,5.14780931 C7.98342479,2.98827074 10.9231568,1.78688918 13.8569213,1.78688918 C16.5198723,1.78688918 19.1322412,2.76922128 21.1316569,4.5021589 Z M1.35261692,1.85528686 C1.42905846,1.49030276 1.72601542,1.21848094 2.09145726,1.17868062 C2.37704744,1.14772472 2.66320601,1.13209941 2.9425445,1.13209941 C5.04994447,1.13209941 6.52393096,2.02687071 7.25367787,2.6020597 C6.91466377,2.82081437 6.5881532,3.05607881 6.27386192,3.3066737 C5.60265386,2.84911685 4.47563822,2.30134587 2.92748355,2.30134587 L2.86723957,2.30164067 C2.59926792,2.30429401 2.37278496,2.50830776 2.33300117,2.78337252 C2.15681624,3.99920012 2.09912985,5.82736383 2.78312544,7.74721575 C2.63876748,8.05087779 2.50492369,8.36220513 2.38131,8.68060809 C2.33697958,8.79440771 2.20341995,9.16116067 2.17954979,9.23103249 C0.751030406,6.30673714 1.02582212,3.41664063 1.35261692,1.85528686 Z" id="Shape" fill-rule="nonzero"></path>
                    </g>
                </g>
            </g>
        </g>
    </g>
</svg>