<?xml version="1.0" encoding="UTF-8"?>
<svg width="34px" height="39px" viewBox="0 0 34 39" version="1.1" xmlns="http://www.w3.org/2000/svg" xmlns:xlink="http://www.w3.org/1999/xlink">
    <title>dog (1)</title>
    <g id="页面-1" stroke="none" stroke-width="1" fill="none" fill-rule="evenodd">
        <g id="25-宠物新增页" transform="translate(-35.000000, -608.000000)" fill="#F8633B" fill-rule="nonzero">
            <g id="Select" transform="translate(15.000000, 593.000000)">
                <g id="dog" transform="translate(-0.000000, 0.000000)">
                    <g id="dog-(1)" transform="translate(20.000000, 15.000000)">
                        <path d="M6.19580983,23.0254571 C6.51990541,23.17502 6.91547099,23.0543745 7.07957296,22.7522199 C7.24429506,22.4507143 7.11399019,22.0808454 6.79051475,21.9258018 C6.69462711,21.8796493 4.4297564,20.7596582 3.83636926,17.4502361 C3.78807662,17.1782248 3.55064425,16.9696733 3.25491964,16.9401068 C2.95260614,16.9087375 2.68013641,17.0674588 2.56959819,17.322884 C1.13422921,20.6624495 3.84094272,24.500534 3.95667453,24.6623561 C4.0836462,24.8401875 4.29402539,24.9361702 4.50704013,24.9361702 C4.63269402,24.9361702 4.76036334,24.9023491 4.87345959,24.8327598 C5.17709087,24.644472 5.25972322,24.2629207 5.05802586,23.9798762 C5.04151489,23.9565115 3.92163717,22.363313 3.57630214,20.48707 C4.66455321,22.2919209 6.11046441,22.9854342 6.19580983,23.0254571 Z" id="Path"></path>
                        <path d="M8.61464542,25.1735344 C8.97532475,25.1060045 9.20991864,24.7766311 9.13797026,24.4385418 C9.06531881,24.1003793 8.71799797,23.8804309 8.35333453,23.9485468 C7.01545405,24.199184 4.48421481,25.5647981 4.48421481,28.936096 C4.48421481,31.3823359 5.03081937,33.0793009 5.45282277,34.0230358 C3.99354405,34.2886878 3.1509434,35.149292 3.1509434,36.4361702 C3.1509434,37.8849147 4.55288215,38.9361702 6.48408286,38.9361702 L7.1506795,38.9361702 C8.25591908,38.9361702 8.93587422,38.1592827 9.00922876,38.0711714 C9.23585443,37.7992938 9.18452969,37.4061991 8.89392387,37.1936481 C8.603943,36.9805113 8.18467378,37.029877 7.95867307,37.3011687 C7.95531392,37.3055633 7.61666439,37.6862067 7.15075762,37.6862067 L6.48408286,37.6862067 C5.49016406,37.6862067 4.48421481,37.2568568 4.48421481,36.4361702 C4.48421481,36.1267919 4.48421481,35.1861332 6.48408286,35.1861332 C6.72875422,35.1861332 6.95272382,35.0592765 7.06935675,34.8573458 C7.18598968,34.6554883 7.17403734,34.4092457 7.04068676,34.2173492 C7.02803135,34.1992582 5.8174081,32.4185766 5.8174081,28.9360227 C5.81748622,25.7666555 8.5039496,25.19602 8.61464542,25.1735344 Z" id="Path"></path>
                        <path d="M26.8490425,34.0228297 C27.2710498,33.0790833 27.8176595,31.382171 27.8176595,28.9358281 C27.8176595,25.5644893 25.2864747,24.1988586 23.9485817,23.9482184 C23.5872741,23.8813468 23.2365908,24.0994668 23.1639387,24.4382194 C23.0919115,24.776386 23.3265857,25.1057634 23.6872684,25.1732209 C23.8019494,25.1951208 26.4844538,25.7351473 26.4844538,28.9358281 C26.4844538,32.4184243 25.2738192,34.1990543 25.2631948,34.2140692 C25.1271869,34.405968 25.1139064,34.6527996 25.2298373,34.8559779 C25.3458464,35.059083 25.5718492,35.1860145 25.8177728,35.1860145 C27.8176595,35.1860145 27.8176595,36.1266846 27.8176595,36.4360664 C27.8176595,37.2566899 26.8117009,37.6861183 25.8177728,37.6861183 L25.1511699,37.6861183 C24.6911959,37.6861183 24.3525432,37.3117692 24.3391846,37.2967543 C24.1118537,37.0298539 23.6965647,36.9823919 23.4079092,37.193627 C23.1172226,37.4061072 23.0658973,37.79928 23.2926032,38.0711609 C23.3659585,38.1592732 24.04592,38.9361702 25.1511699,38.9361702 L25.8177728,38.9361702 C27.7496946,38.9361702 29.1509434,37.884902 29.1509434,36.4361396 C29.1509434,35.1491728 28.3083349,34.2884849 26.8490425,34.0228297 Z" id="Path"></path>
                        <path d="M20.6601603,33.7855602 L21.8419093,26.6933978 C21.9010196,26.339121 21.6618361,26.0044205 21.3076314,25.9452347 C20.9520555,25.8867345 20.618646,26.1253057 20.5601451,26.4788969 L19.3504407,33.7362007 L19.2509586,33.7362007 C18.8914979,33.7362007 18.6009739,34.0274069 18.6009739,34.3861778 C18.6009739,34.7449488 18.8914979,35.036155 19.2509586,35.036155 L19.9009434,35.036155 C21.8509739,35.036155 21.8509739,36.0144342 21.8509739,36.3361854 C21.8509739,37.1896185 20.8700933,37.6362159 19.9009434,37.6362159 L19.2509586,37.6362159 C18.175852,37.6362159 17.3009282,36.7613023 17.3009282,35.6862083 L17.3009282,26.5861474 C17.3009282,26.2273764 17.0104041,25.9361702 16.6509434,25.9361702 C16.2914827,25.9361702 16.0009586,26.2273764 16.0009586,26.5861474 L16.0009586,35.6862083 C16.0009586,36.7613023 15.1260348,37.6362159 14.0509282,37.6362159 L13.4009434,37.6362159 C12.4317935,37.6362159 11.4509129,37.1896946 11.4509129,36.3361854 C11.4509129,36.0144342 11.4509129,35.036155 13.4009434,35.036155 L14.0509282,35.036155 C14.4103889,35.036155 14.7009129,34.7449488 14.7009129,34.3861778 C14.7009129,34.0274069 14.4103889,33.7362007 14.0509282,33.7362007 L13.9514461,33.7362007 L12.7418179,26.4788969 C12.6840025,26.1253057 12.3492219,25.8867345 11.9943316,25.9452347 C11.6400506,26.0044205 11.4008672,26.339121 11.4600537,26.6933978 L12.6418026,33.7855602 C11.0674577,34.0033365 10.1509434,34.9224299 10.1509434,36.3361854 C10.1509434,37.842871 11.5179452,38.9361702 13.4010196,38.9361702 L14.0510043,38.9361702 C15.1130854,38.9361702 16.0575552,38.4239885 16.6510196,37.6342354 C17.2443316,38.4239885 18.1888014,38.9361702 19.2508825,38.9361702 L19.9008672,38.9361702 C21.7846271,38.9361702 23.1509434,37.842871 23.1509434,36.3361854 C23.1509434,34.9224299 22.2344291,34.0033365 20.6601603,33.7855602 Z" id="Path"></path>
                        <path d="M32.4490499,6.33810566 C31.0541872,3.56105225 27.6939038,0.936170213 25.5355702,0.936170213 C24.3101198,0.936170213 22.2013159,2.82713627 21.1421543,3.85784563 C19.9179682,2.81388789 18.427839,2.19935538 16.6509434,2.19935538 C14.8740478,2.19935538 13.3839186,2.81388789 12.1598068,3.85791964 C11.1005709,2.82713627 8.99176695,0.936170213 7.76631657,0.936170213 C5.60798297,0.936170213 2.24769956,3.56105225 0.852836873,6.33810566 C0.432727077,7.17304981 0.150943396,8.30167878 0.150943396,9.14676275 C0.150943396,10.8879999 1.57436373,12.3046887 3.32404034,12.3046887 C4.90103241,12.3046887 5.6067187,11.2727211 6.17281461,10.4434019 C6.24197766,10.3429659 6.31054577,10.2419377 6.39049232,10.1288454 L8.92892525,6.33936389 C9.12377171,6.04886165 9.04508944,5.6565911 8.75311722,5.46334235 C8.4599551,5.26883537 8.06706432,5.34773356 7.87288717,5.63830981 L5.34397345,9.41387679 C5.26908399,9.51934575 5.19612812,9.62607295 5.12309789,9.73280014 C4.55253985,10.5690025 4.18701681,11.0414295 3.32396597,11.0414295 C2.27432362,11.0414295 1.42012268,10.1913126 1.42012268,9.14668874 C1.42012268,8.49048673 1.65364096,7.56776279 1.98807781,6.90267919 C3.23829302,4.41361157 6.26094173,2.19928136 7.7662422,2.19928136 C8.30757327,2.19928136 9.91884939,3.45358493 11.2623232,4.75340668 C8.87805694,7.5121788 7.7662422,12.1309054 7.7662422,16.7256517 C7.7662422,22.5570124 10.3402235,24.9361702 16.650869,24.9361702 C22.9615146,24.9361702 25.5354959,22.5570124 25.5354959,16.7256517 C25.5354959,12.1302393 24.4236811,7.5121788 22.0394149,4.75340668 C23.3828887,3.45358493 24.9935698,2.19928136 25.5354959,2.19928136 C27.0407963,2.19928136 30.063445,4.41361157 31.3143296,6.90267919 C31.6481715,7.56776279 31.8816897,8.49048673 31.8816897,9.14668874 C31.8816897,10.1913126 31.0274888,11.0414295 29.9778465,11.0414295 C29.0837094,11.0414295 28.7308291,10.5740354 28.1355806,9.67914049 L25.4289253,5.63830981 C25.2347481,5.34780757 24.8406674,5.26883537 24.5486952,5.46334235 C24.2567974,5.6565911 24.1781151,6.04878763 24.3728872,6.33936389 L27.077014,10.3764199 C27.6786582,11.2801964 28.3595797,12.3046146 29.9778465,12.3046146 C31.7274487,12.3046146 33.1509434,10.8879999 33.1509434,9.14668874 C33.1509434,8.30167878 32.8691597,7.17304981 32.4490499,6.33810566 Z M24.2663166,16.7256517 C24.2663166,21.8553662 22.2730075,23.6730591 16.6509434,23.6730591 C11.0288793,23.6730591 9.03557022,21.8553662 9.03557022,16.7256517 C9.03557022,10.1237384 11.3906095,3.46246653 16.6509434,3.46246653 C21.9112773,3.46246653 24.2663166,10.1237384 24.2663166,16.7256517 Z" id="Shape"></path>
                        <path d="M19.9364901,19.461377 C19.8265824,19.6612036 19.397197,19.7337655 19.2222789,19.7361562 C18.4695736,19.7361562 17.6917079,19.1379421 17.4107994,18.4503615 C18.467615,18.2271914 19.2222789,17.5581732 19.2222789,16.7361562 C19.2222789,15.7269687 18.0928444,14.9361702 16.6510131,14.9361702 C15.2091819,14.9361702 14.0797474,15.7269687 14.0797474,16.7361562 C14.0797474,17.5581732 14.8344112,18.2271211 15.8912268,18.4503615 C15.610921,19.1379421 14.8331306,19.7361562 14.0841919,19.7361562 C13.8997068,19.7337655 13.4792857,19.6611333 13.3616943,19.4547677 C13.1952133,19.1619888 12.8062805,19.0509662 12.4926031,19.2063556 C12.1789257,19.361745 12.0593757,19.7247656 12.2264594,20.0175446 C12.7342642,20.9103657 13.943474,20.9361702 14.0797474,20.9361702 C15.078031,20.9361702 16.0435457,20.4039791 16.6510131,19.6425709 C17.2584806,20.4039791 18.2239953,20.9361702 19.2222789,20.9361702 C19.3598329,20.9361702 20.5825269,20.9098032 21.0794087,20.0110056 C21.2420479,19.7163985 21.1179781,19.3546435 20.8023421,19.20284 C20.4867061,19.0510365 20.0997319,19.1661372 19.9364901,19.461377 Z M16.6510131,17.3361983 C15.8783453,17.3361983 15.3653426,16.9750058 15.3653426,16.7362265 C15.3653426,16.4974471 15.8783453,16.1362546 16.6510131,16.1362546 C17.4358846,16.1362546 17.9366837,16.4914706 17.9366837,16.7362265 C17.9366837,16.9809824 17.4358846,17.3361983 16.6510131,17.3361983 Z" id="Shape"></path>
                        <path d="M19.1509434,11.9361702 C19.7022715,11.9361702 20.1509434,11.4874983 20.1509434,10.9361702 C20.1509434,10.3848421 19.7022715,9.93617021 19.1509434,9.93617021 C18.5996153,9.93617021 18.1509434,10.3848421 18.1509434,10.9361702 C18.1509434,11.4874983 18.5996153,11.9361702 19.1509434,11.9361702 Z" id="Path"></path>
                        <path d="M13.1509434,11.9361702 C13.7022715,11.9361702 14.1509434,11.4874983 14.1509434,10.9361702 C14.1509434,10.3848421 13.7022715,9.93617021 13.1509434,9.93617021 C12.5996153,9.93617021 12.1509434,10.3848421 12.1509434,10.9361702 C12.1509434,11.4874983 12.5996153,11.9361702 13.1509434,11.9361702 Z" id="Path"></path>
                    </g>
                </g>
            </g>
        </g>
    </g>
</svg>